# xmcd
#
# Track frame offsets:
#	150
#	22165
#	41985
#	61247
#	80710
#	94912
#	122952
#	141737
#	160490
#	176172
#	200402
#	227135
#	248120
#
# Disc length: 3570 seconds
#
# Revision: 1
# Processed by: cddbd v1.5.1PL0 Copyright (c) Steve Scherf et al.
# Submitted via: AudioConverter v4.05 Copyright (c) Dennis Rebentrost
#
DISCID=c90df00d
DTITLE=Herd_ S - Swear
DYEAR=2004
DGENRE=Country
TTITLE0=I Swear
TTITLE1=A Fool In Myself
TTITLE2=Little Rainy Sunset
TTITLE3=My Song Of Hope
TTITLE4=Got To Know
TTITLE5=A Song For Alice
TTITLE6=One For Adviser
TTITLE7=Saying For A Little
TTITLE8=The Cheese
TTITLE9=Jealous Guy
TTITLE10=Come If It Is Only For A Minute
TTITLE11=Don't Be So Hard
TTITLE12=Deep Dream
EXTD=I Swear
EXTT0=
EXTT1=
EXTT2=
EXTT3=
EXTT4=
EXTT5=
EXTT6=
EXTT7=
EXTT8=
EXTT9=
EXTT10=
EXTT11=
EXTT12=
PLAYORDER=
